<?xml version="1.0" encoding="UTF-8"?>
<svg version="1.1" xmlns="http://www.w3.org/2000/svg" width="193" height="96">
<path d="M0 0 C63.69 0 127.38 0 193 0 C193 31.68 193 63.36 193 96 C129.31 96 65.62 96 0 96 C0 64.32 0 32.64 0 0 Z " fill="#0D5039" transform="translate(0,0)"/>
<path d="M0 0 C1.32 0.33 2.64 0.66 4 1 C3.67 2.32 3.34 3.64 3 5 C3.66 5 4.32 5 5 5 C5 4.01 5 3.02 5 2 C11.93 2 18.86 2 26 2 C27.485 4.908125 28.97 7.81625 30.5 10.8125 C31.20479492 12.18112183 31.20479492 12.18112183 31.92382812 13.57739258 C32.28927734 14.30079834 32.65472656 15.0242041 33.03125 15.76953125 C33.40830078 16.50792236 33.78535156 17.24631348 34.17382812 18.00708008 C35 20 35 20 35 23 C37.97 23 40.94 23 44 23 C44 16.07 44 9.14 44 2 C54.23 2 64.46 2 75 2 C75 4.31 75 6.62 75 9 C67.41 9 59.82 9 52 9 C52 10.65 52 12.3 52 14 C57.94 14 63.88 14 70 14 C70 15.65 70 17.3 70 19 C61.585 19.495 61.585 19.495 53 20 C52.505 22.475 52.505 22.475 52 25 C59.59 25 67.18 25 75 25 C75 27.31 75 29.62 75 32 C59.655 32.495 59.655 32.495 44 33 C44 33.99 44 34.98 44 36 C43.34 36 42.68 36 42 36 C43.485 36.99 43.485 36.99 45 38 C45 39.32 45 40.64 45 42 C41.37 42 37.74 42 34 42 C34.33 40.02 34.66 38.04 35 36 C33.68 36 32.36 36 31 36 C31.99 38.97 31.99 38.97 33 42 C26.25 44.125 26.25 44.125 24 43 C23.375 40.9375 23.375 40.9375 23 39 C22.67 39.99 22.34 40.98 22 42 C19.31735316 43.45007937 17.72668339 44.11784055 14.6875 43.625 C14.130625 43.41875 13.57375 43.2125 13 43 C13 41.35 13 39.7 13 38 C12.01 37.505 12.01 37.505 11 37 C11 38.65 11 40.3 11 42 C9.02 42 7.04 42 5 42 C5.66 40.35 6.32 38.7 7 37 C6.34 37 5.68 37 5 37 C4.67 36.34 4.34 35.68 4 35 C4 35.99 4 36.98 4 38 C4 39.32 4 40.64 4 42 C2.33388095 42.042721 0.66617115 42.04063832 -1 42 C-1.33 41.67 -1.66 41.34 -2 41 C-2.495 41.99 -2.495 41.99 -3 43 C-4.32 43 -5.64 43 -7 43 C-6.38461538 37.46153846 -6.38461538 37.46153846 -4.4375 35.125 C-3.963125 34.75375 -3.48875 34.3825 -3 34 C-3.94875 33.87625 -4.8975 33.7525 -5.875 33.625 C-9 33 -9 33 -11 31 C-11.33 31.33 -11.66 31.66 -12 32 C-14.01964199 32.07244053 -16.04167124 32.08377188 -18.0625 32.0625 C-19.16722656 32.05347656 -20.27195312 32.04445312 -21.41015625 32.03515625 C-22.26480469 32.02355469 -23.11945313 32.01195312 -24 32 C-24.65355469 30.58460937 -24.65355469 30.58460937 -25.3203125 29.140625 C-25.92143171 27.84354447 -26.52302893 26.54668541 -27.125 25.25 C-27.59498413 24.23740112 -27.59498413 24.23740112 -28.07446289 23.2043457 C-30.5786868 17.83797125 -33.21430292 12.554051 -35.93359375 7.29296875 C-37 5 -37 5 -37 3 C-34.03 3 -31.06 3 -28 3 C-26.49265614 5.93393715 -24.99393108 8.87174377 -23.5 11.8125 C-22.85611328 13.06256836 -22.85611328 13.06256836 -22.19921875 14.33789062 C-21.79316406 15.14033203 -21.38710937 15.94277344 -20.96875 16.76953125 C-20.59169922 17.50792236 -20.21464844 18.24631348 -19.82617188 19.00708008 C-19 21 -19 21 -19 24 C-18.34 24 -17.68 24 -17 24 C-16.61908203 22.77216797 -16.61908203 22.77216797 -16.23046875 21.51953125 C-14.80794933 17.45067411 -13.1459699 13.58495343 -11.3125 9.6875 C-10.99861328 8.95982422 -10.68472656 8.23214844 -10.36132812 7.48242188 C-9.38020162 5.42224821 -8.50073591 3.72134917 -7 2 C-3.23046875 1.01953125 -3.23046875 1.01953125 0 1 C0 0.67 0 0.34 0 0 Z " fill="#12533C" transform="translate(98,33)"/>
<path d="M0 0 C10.23 0 20.46 0 31 0 C31 2.31 31 4.62 31 7 C23.41 7 15.82 7 8 7 C8 8.65 8 10.3 8 12 C13.94 12 19.88 12 26 12 C26 13.65 26 15.3 26 17 C17.585 17.495 17.585 17.495 9 18 C8.505 20.475 8.505 20.475 8 23 C15.59 23 23.18 23 31 23 C31 25.31 31 27.62 31 30 C16.48 30 1.96 30 -13 30 C-17.81439026 20.37121949 -22.57019952 10.7992556 -27 1 C-24.03 1 -21.06 1 -18 1 C-16.49239502 3.76693375 -14.99373826 6.53809425 -13.5 9.3125 C-13.07074219 10.09818359 -12.64148438 10.88386719 -12.19921875 11.69335938 C-11.79316406 12.45068359 -11.38710937 13.20800781 -10.96875 13.98828125 C-10.59169922 14.68477783 -10.21464844 15.38127441 -9.82617188 16.09887695 C-9 18 -9 18 -9 21 C-6.03 21 -3.06 21 0 21 C0 14.07 0 7.14 0 0 Z " fill="#F8FCFB" transform="translate(142,35)"/>
<path d="M0 0 C2.97 0 5.94 0 9 0 C10.50734386 2.93393715 12.00606892 5.87174377 13.5 8.8125 C14.14388672 10.06256836 14.14388672 10.06256836 14.80078125 11.33789062 C15.20683594 12.14033203 15.61289063 12.94277344 16.03125 13.76953125 C16.40830078 14.50792236 16.78535156 15.24631348 17.17382812 16.00708008 C18 18 18 18 18 21 C18.66 21 19.32 21 20 21 C20.25652344 20.16082031 20.51304688 19.32164063 20.77734375 18.45703125 C22.10209119 14.7113396 23.76143709 11.21906872 25.5625 7.6875 C25.87896484 7.05521484 26.19542969 6.42292969 26.52148438 5.77148438 C28.85912135 1.14087865 28.85912135 1.14087865 30 0 C31.51928038 -0.07179964 33.04167482 -0.08392007 34.5625 -0.0625 C35.38878906 -0.05347656 36.21507812 -0.04445312 37.06640625 -0.03515625 C37.70449219 -0.02355469 38.34257813 -0.01195312 39 0 C37.37384088 5.89117524 34.42461156 10.90555241 31.4375 16.1875 C30.43397294 17.97140643 29.43257311 19.75651166 28.43359375 21.54296875 C27.99072021 22.32696045 27.54784668 23.11095215 27.09155273 23.91870117 C25.87907431 26.09515557 25.87907431 26.09515557 25 29 C21.04 29 17.08 29 13 29 C12.34644531 27.58460937 12.34644531 27.58460937 11.6796875 26.140625 C11.07856829 24.84354447 10.47697107 23.54668541 9.875 22.25 C9.40501587 21.23740112 9.40501587 21.23740112 8.92553711 20.2043457 C6.4213132 14.83797125 3.78569708 9.554051 1.06640625 4.29296875 C0 2 0 2 0 0 Z " fill="#ECF5F2" transform="translate(61,36)"/>
<path d="M0 0 C3.63 0 7.26 0 11 0 C13.01271915 4.07718374 15.00794004 8.16268778 17 12.25 C17.57234375 13.40886719 18.1446875 14.56773438 18.734375 15.76171875 C19.27578125 16.87675781 19.8171875 17.99179687 20.375 19.140625 C20.87773438 20.16704102 21.38046875 21.19345703 21.8984375 22.25097656 C23 25 23 25 23 29 C20.69 29 18.38 29 16 29 C12.18482215 22.14313241 8.48893015 15.46679044 6 8 C3.91539972 10.08460028 3.0734884 11.69966772 1.8359375 14.3515625 C1.43632813 15.20234375 1.03671875 16.053125 0.625 16.9296875 C0.2125 17.81914063 -0.2 18.70859375 -0.625 19.625 C-1.04523438 20.5221875 -1.46546875 21.419375 -1.8984375 22.34375 C-2.93616983 24.56072362 -3.9698442 26.77949822 -5 29 C-7.64 29 -10.28 29 -13 29 C-12.43303134 25.40289886 -11.50174926 22.79835407 -9.625 19.6875 C-7.59027915 16.17192214 -6.09406423 12.75413212 -4.7578125 8.9296875 C-3.50795263 5.74705465 -1.76569543 2.92253036 0 0 Z " fill="#EDF5F3" transform="translate(103,36)"/>
<path d="M0 0 C10.23 0 20.46 0 31 0 C31 2.31 31 4.62 31 7 C23.74 7 16.48 7 9 7 C9 6.67 9 6.34 9 6 C15.93 6 22.86 6 30 6 C30 4.35 30 2.7 30 1 C20.43 1 10.86 1 1 1 C1 10.24 1 19.48 1 29 C10.57 29 20.14 29 30 29 C30 27.02 30 25.04 30 23 C30.33 23 30.66 23 31 23 C31 25.31 31 27.62 31 30 C16.48 30 1.96 30 -13 30 C-17.81439026 20.37121949 -22.57019952 10.7992556 -27 1 C-24.03 1 -21.06 1 -18 1 C-16.49239502 3.76693375 -14.99373826 6.53809425 -13.5 9.3125 C-13.07074219 10.09818359 -12.64148438 10.88386719 -12.19921875 11.69335938 C-11.79316406 12.45068359 -11.38710937 13.20800781 -10.96875 13.98828125 C-10.59169922 14.68477783 -10.21464844 15.38127441 -9.82617188 16.09887695 C-9 18 -9 18 -9 21 C-6.03 21 -3.06 21 0 21 C0 14.07 0 7.14 0 0 Z " fill="#DAE7E3" transform="translate(142,35)"/>
<path d="M0 0 C2 0 2 0 3.77734375 1.71875 C4.87755859 2.84796875 4.87755859 2.84796875 6 4 C8.78611812 6.29682887 11.61143292 8.53877453 14.44140625 10.78125 C19.87192871 15.49046643 19.87192871 15.49046643 20.29296875 20.453125 C20.25816406 21.70609375 20.22335938 22.9590625 20.1875 24.25 C20.16042969 25.51328125 20.13335937 26.7765625 20.10546875 28.078125 C20.07066406 29.04234375 20.03585938 30.0065625 20 31 C15.24074329 29.4820382 12.03196131 26.82634835 8.3125 23.625 C7.73177734 23.14289062 7.15105469 22.66078125 6.55273438 22.1640625 C1.00491954 17.44360965 1.00491954 17.44360965 0 14 C-0.1953125 10.546875 -0.1953125 10.546875 -0.125 6.75 C-0.10695313 5.48671875 -0.08890625 4.2234375 -0.0703125 2.921875 C-0.04710938 1.95765625 -0.02390625 0.9934375 0 0 Z " fill="#B9D33B" transform="translate(19,34)"/>
<path d="M0 0 C6.93 0 13.86 0 21 0 C21 0.33 21 0.66 21 1 C18.36 1.33 15.72 1.66 13 2 C14.79108432 5.75027841 16.58296851 9.5001741 18.375 13.25 C18.88289063 14.31347656 19.39078125 15.37695312 19.9140625 16.47265625 C20.40390625 17.49746094 20.89375 18.52226563 21.3984375 19.578125 C22.07398682 20.99206543 22.07398682 20.99206543 22.76318359 22.43457031 C23.17133301 23.28116211 23.57948242 24.12775391 24 25 C24.49826294 26.14106201 24.49826294 26.14106201 25.0065918 27.30517578 C25.3344165 27.86446777 25.66224121 28.42375977 26 29 C28.55006038 29.63016367 28.55006038 29.63016367 31.4375 29.625 C36.7113764 29.80758427 36.7113764 29.80758427 40 32 C39.505 32.99 39.505 32.99 39 34 C38.34 34 37.68 34 37 34 C37.99 34.66 38.98 35.32 40 36 C40 37.32 40 38.64 40 40 C36.37 40 32.74 40 29 40 C29.33 38.02 29.66 36.04 30 34 C28.68 34 27.36 34 26 34 C26.66 35.98 27.32 37.96 28 40 C21.25 42.125 21.25 42.125 19 41 C18.375 38.9375 18.375 38.9375 18 37 C17.67 37.99 17.34 38.98 17 40 C14.31735316 41.45007937 12.72668339 42.11784055 9.6875 41.625 C9.130625 41.41875 8.57375 41.2125 8 41 C8 39.35 8 37.7 8 36 C8.61875 35.9175 9.2375 35.835 9.875 35.75 C12.18437567 35.18741541 12.18437567 35.18741541 13.25 32.9375 C13.62125 31.9784375 13.62125 31.9784375 14 31 C14 31.99 14 32.98 14 34 C14.66 34.33 15.32 34.66 16 35 C16 34.34 16 33.68 16 33 C17.98 32.505 17.98 32.505 20 32 C20 32.66 20 33.32 20 34 C20.66 34.33 21.32 34.66 22 35 C22.33 35.99 22.66 36.98 23 38 C23 36.02 23 34.04 23 32 C20.69 31.67 18.38 31.34 16 31 C16 30.67 16 30.34 16 30 C18.31 30 20.62 30 23 30 C20.27780798 22.71097268 17.03343641 15.71134951 13.64257812 8.71508789 C11 3.20950865 11 3.20950865 11 1 C7.37 1 3.74 1 0 1 C0 0.67 0 0.34 0 0 Z " fill="#477162" transform="translate(103,35)"/>
<path d="M0 0 C0.10884934 2.20722277 0.18597167 4.41602265 0.25 6.625 C0.29640625 7.85476562 0.3428125 9.08453125 0.390625 10.3515625 C-0.38761636 17.62033681 -5.33920569 21.51581439 -10.6875 25.875 C-11.28111328 26.37257813 -11.87472656 26.87015625 -12.48632812 27.3828125 C-16.84384658 31 -16.84384658 31 -18 31 C-19.05634471 18.12265494 -19.05634471 18.12265494 -16.7578125 13.50390625 C-14.96422738 11.449962 -13.09712166 9.74251745 -11 8 C-10.20851563 7.25621094 -9.41703125 6.51242188 -8.6015625 5.74609375 C-2.42576087 0 -2.42576087 0 0 0 Z " fill="#BBD436" transform="translate(58,35)"/>
<path d="M0 0 C0.33 0 0.66 0 1 0 C1.02578125 0.86882813 1.0515625 1.73765625 1.078125 2.6328125 C1.13484375 3.78523438 1.1915625 4.93765625 1.25 6.125 C1.29640625 7.26195312 1.3428125 8.39890625 1.390625 9.5703125 C2.64395009 16.6242832 7.14082888 20.30342402 12.625 24.3125 C13.21023437 24.75400391 13.79546875 25.19550781 14.3984375 25.65039062 C17.57084773 28.02754161 17.57084773 28.02754161 21 30 C21 26.04 21 22.08 21 18 C21.33 18 21.66 18 22 18 C22.33 21.96 22.66 25.92 23 30 C26.96 26.7 30.92 23.4 35 20 C35.66 20.33 36.32 20.66 37 21 C37.3828125 23.6640625 37.3828125 23.6640625 37 27 C34.96251967 29.14630717 33.2344945 30.67718983 30.875 32.375 C30.30523437 32.82488281 29.73546875 33.27476563 29.1484375 33.73828125 C26.36225965 35.82158241 24.27524929 36.96222069 20.8125 37.4375 C17.89793222 36.98412279 16.44065189 36.40547901 14.125 34.625 C13.52945312 34.18414062 12.93390625 33.74328125 12.3203125 33.2890625 C11.88460938 32.86367187 11.44890625 32.43828125 11 32 C11 31.34 11 30.68 11 30 C10.1028125 29.566875 10.1028125 29.566875 9.1875 29.125 C7 28 7 28 4 26 C3.2833793 23.68152126 2.61757973 21.34680297 2 19 C1.34 18.01 0.68 17.02 0 16 C-0.14245897 13.23344676 -0.18769445 10.57346694 -0.125 7.8125 C-0.11597656 7.06291016 -0.10695313 6.31332031 -0.09765625 5.54101562 C-0.07412578 3.69387346 -0.03825561 1.84689588 0 0 Z " fill="#3C6510" transform="translate(18,35)"/>
<path d="M0 0 C0.66 0 1.32 0 2 0 C2.495 1.98 2.495 1.98 3 4 C3.99 4 4.98 4 6 4 C6.66 3.01 7.32 2.02 8 1 C8.0825 1.78375 8.165 2.5675 8.25 3.375 C8.72806339 6.14749104 8.72806339 6.14749104 11.0625 7.3125 C11.701875 7.539375 12.34125 7.76625 13 8 C11.68 8 10.36 8 9 8 C9.99 8.66 10.98 9.32 12 10 C12 10.66 12 11.32 12 12 C12.99 11.67 13.98 11.34 15 11 C15 11.66 15 12.32 15 13 C12.47524538 14.26237731 10.68799534 14.09856404 7.875 14.0625 C6.26625 14.041875 4.6575 14.02125 3 14 C3 18.29 3 22.58 3 27 C2.67 27 2.34 27 2 27 C2 22.38 2 17.76 2 13 C-4.68995195 18.28588796 -10.59314062 23.42664617 -16 30 C-16.66 30.66 -17.32 31.32 -18 32 C-18.29390625 31.52691406 -18.5878125 31.05382812 -18.890625 30.56640625 C-23.44675511 23.85004204 -29.42727068 19.59452923 -36 15 C-35.34 14.67 -34.68 14.34 -34 14 C-30.3038923 15.89800125 -27.2089701 18.38215597 -24 21 C-23.01 21.66 -22.02 22.32 -21 23 C-20.34 22.67 -19.68 22.34 -19 22 C-18.67 23.32 -18.34 24.64 -18 26 C-17.34 26 -16.68 26 -16 26 C-16 25.34 -16 24.68 -16 24 C-13.76064071 21.51182301 -11.84512945 19.41049145 -8.8125 17.9375 C-6.47139069 16.72658139 -5.95928874 15.39822186 -5 13 C-4.01 13 -3.02 13 -2 13 C-2.66 11.35 -3.32 9.7 -4 8 C-3.34 8 -2.68 8 -2 8 C-2 7.01 -2 6.02 -2 5 C-1.01 5.33 -0.02 5.66 1 6 C0.505 3.03 0.505 3.03 0 0 Z " fill="#0F4E2F" transform="translate(57,21)"/>
<path d="M0 0 C1.32 0.33 2.64 0.66 4 1 C4.45504315 5.66419226 3.53926777 8.21500744 1.0703125 12.16015625 C-0.00893098 14.01535216 -0.72926548 15.78955429 -1.4375 17.8125 C-3.18591714 22.75663513 -5.58989535 27.3512606 -8 32 C-5.36 32 -2.72 32 0 32 C0.33 30.68 0.66 29.36 1 28 C1.12375 28.53625 1.2475 29.0725 1.375 29.625 C1.99834449 32.12714084 1.99834449 32.12714084 3.0625 35 C4 38 4 38 4 42 C2.33388095 42.042721 0.66617115 42.04063832 -1 42 C-1.33 41.67 -1.66 41.34 -2 41 C-2.33 41.66 -2.66 42.32 -3 43 C-4.32 43 -5.64 43 -7 43 C-6.38461538 37.46153846 -6.38461538 37.46153846 -4.4375 35.125 C-3.963125 34.75375 -3.48875 34.3825 -3 34 C-4.423125 33.814375 -4.423125 33.814375 -5.875 33.625 C-9 33 -9 33 -11 31 C-11 26.89248144 -9.15127073 23.94437848 -7.3125 20.375 C-6.94962891 19.66021484 -6.58675781 18.94542969 -6.21289062 18.20898438 C-3.59093563 13.07218799 -0.86158386 8.00777175 2 3 C-0.97 3 -3.94 3 -7 3 C-7 2.67 -7 2.34 -7 2 C-3.535 1.505 -3.535 1.505 0 1 C0 0.67 0 0.34 0 0 Z " fill="#396154" transform="translate(98,33)"/>
<path d="M0 0 C2.5625 0.1875 2.5625 0.1875 4.5625 2.1875 C4.6875 4.8125 4.6875 4.8125 4.5625 7.1875 C5.5525 7.1875 6.5425 7.1875 7.5625 7.1875 C7.748125 6.548125 7.93375 5.90875 8.125 5.25 C9.5625 3.1875 9.5625 3.1875 13.1875 2.4375 C14.858125 2.31375 14.858125 2.31375 16.5625 2.1875 C16.5625 4.8275 16.5625 7.4675 16.5625 10.1875 C13.18432575 11.03204356 10.88784757 11.29594919 7.5625 10.1875 C7.5625 9.5275 7.5625 8.8675 7.5625 8.1875 C6.985 8.6825 6.4075 9.1775 5.8125 9.6875 C3.5625 11.1875 3.5625 11.1875 -0.4375 11.1875 C-0.7675 11.8475 -1.0975 12.5075 -1.4375 13.1875 C-2.28189338 9.20678836 -2.97093967 5.23102289 -3.4375 1.1875 C-2.4375 0.1875 -2.4375 0.1875 0 0 Z " fill="#266336" transform="translate(67.4375,18.8125)"/>
<path d="M0 0 C-0.46897705 0.43344727 -0.9379541 0.86689453 -1.42114258 1.31347656 C-3.55473534 3.28895698 -5.68364552 5.26941484 -7.8125 7.25 C-8.55048828 7.93191406 -9.28847656 8.61382812 -10.04882812 9.31640625 C-11.11713867 10.31220703 -11.11713867 10.31220703 -12.20703125 11.328125 C-12.8616333 11.9355957 -13.51623535 12.54306641 -14.19067383 13.16894531 C-16.00055551 15.00056218 -17.50629993 16.90599015 -19 19 C-19.29390625 18.52691406 -19.5878125 18.05382812 -19.890625 17.56640625 C-24.44675511 10.85004204 -30.42727068 6.59452923 -37 2 C-36.34 1.67 -35.68 1.34 -35 1 C-31.3038923 2.89800125 -28.2089701 5.38215597 -25 8 C-24.01 8.66 -23.02 9.32 -22 10 C-21.34 9.67 -20.68 9.34 -20 9 C-19.67 10.32 -19.34 11.64 -19 13 C-18.34 13 -17.68 13 -17 13 C-17 12.34 -17 11.68 -17 11 C-14.76064071 8.51182301 -12.84512945 6.41049145 -9.8125 4.9375 C-7.80905699 4.13051701 -7.80905699 4.13051701 -7 1.9375 C-6 0 -6 0 -4 -0.8125 C-2 -1 -2 -1 0 0 Z " fill="#1B541A" transform="translate(58,34)"/>
<path d="M0 0 C2.67329316 0.09011101 5.32402662 0.04535548 8 0 C8.33 1.65 8.66 3.3 9 5 C7.35 5 5.7 5 4 5 C4 4.01 4 3.02 4 2 C2.68 2 1.36 2 0 2 C0 2.66 0 3.32 0 4 C0.99 3.67 1.98 3.34 3 3 C3 3.66 3 4.32 3 5 C2.113125 4.95875 1.22625 4.9175 0.3125 4.875 C-2.96784146 4.80031789 -2.96784146 4.80031789 -5.625 6.125 C-8 7 -8 7 -10.3125 6.125 C-10.869375 5.75375 -11.42625 5.3825 -12 5 C-12 3.35 -12 1.7 -12 0 C-7.59533901 -0.77729312 -4.33545734 -0.95168576 0 0 Z " fill="#3E7762" transform="translate(70,70)"/>
<path d="M0 0 C0.99 0.33 1.98 0.66 3 1 C4.56118428 1.06740865 6.1250252 1.08514456 7.6875 1.0625 C8.49574219 1.05347656 9.30398437 1.04445312 10.13671875 1.03515625 C10.75160156 1.02355469 11.36648437 1.01195312 12 1 C12 1.33 12 1.66 12 2 C9.36 2 6.72 2 4 2 C4.3081665 2.59538574 4.61633301 3.19077148 4.93383789 3.80419922 C6.31832536 6.49029898 7.69053037 9.18248664 9.0625 11.875 C9.54783203 12.81214844 10.03316406 13.74929687 10.53320312 14.71484375 C10.98759766 15.61074219 11.44199219 16.50664063 11.91015625 17.4296875 C12.33433838 18.25710449 12.75852051 19.08452148 13.19555664 19.93701172 C13.5937561 20.95819092 13.5937561 20.95819092 14 22 C13.67 22.66 13.34 23.32 13 24 C9.77255796 22.38627898 8.83955576 19.15426598 7.21875 16.03125 C6.16138222 13.85699299 6.16138222 13.85699299 4 13 C3.34 14.32 2.68 15.64 2 17 C0.47893366 13.95786733 0.62570662 10.71952428 0.4375 7.375 C0.39431641 6.66859375 0.35113281 5.9621875 0.30664062 5.234375 C0.20055249 3.48981463 0.09977111 1.74493303 0 0 Z " fill="#336545" transform="translate(57,34)"/>
<path d="M0 0 C1.53445094 3.06890187 0.54984289 5.70094266 0 9 C2.475 9.495 2.475 9.495 5 10 C4 11.625 4 11.625 2 13 C0.05613003 12.57168967 -1.88768737 12.12696096 -3.79296875 11.55078125 C-7.23874804 10.69086111 -10.46312489 10.87368303 -14 11 C-12.68 10.34 -11.36 9.68 -10 9 C-10 7.35 -10 5.7 -10 4 C-11.32 3.67 -12.64 3.34 -14 3 C-14 4.98 -14 6.96 -14 9 C-14.33 9 -14.66 9 -15 9 C-15 6.69 -15 4.38 -15 2 C-12.36 1.67 -9.72 1.34 -7 1 C-6.67 2.98 -6.34 4.96 -6 7 C-3.7522025 4.94766315 -2.9977758 3.99332739 -2 1 C-1.34 0.67 -0.68 0.34 0 0 Z " fill="#13522E" transform="translate(158,18)"/>
<path d="M0 0 C0.66 2.31 1.32 4.62 2 7 C-1.44069624 9.29379749 -2.72290301 10 -7 10 C-8.1577506 6.52674819 -8.06866652 3.63932552 -8 0 C-5.13822943 -1.43088528 -3.06624227 -0.59991697 0 0 Z " fill="#195729" transform="translate(47,21)"/>
<path d="M0 0 C1.41441874 2.82883747 1.31900332 4.87376745 1 8 C-0.75 9.9375 -0.75 9.9375 -3 11 C-4.32 10.67 -5.64 10.34 -7 10 C-7 6.7 -7 3.4 -7 0 C-3 -1 -3 -1 0 0 Z " fill="#14532B" transform="translate(104,19)"/>
<path d="M0 0 C0.49628906 0.37511719 0.99257813 0.75023437 1.50390625 1.13671875 C2.52291016 1.90435547 2.52291016 1.90435547 3.5625 2.6875 C4.28566406 3.23664062 5.00882813 3.78578125 5.75390625 4.3515625 C7.16841436 5.38968845 8.61151252 6.39091081 10.08984375 7.3359375 C12 8.5625 12 8.5625 15 11 C15.4375 13.8125 15.4375 13.8125 15 16 C11.88626628 14.50079488 8.87771795 12.91847864 6 11 C6 10.34 6 9.68 6 9 C5.071875 8.566875 5.071875 8.566875 4.125 8.125 C2 7 2 7 0 5 C-0.125 2.375 -0.125 2.375 0 0 Z " fill="#558038" transform="translate(23,56)"/>
<path d="M0 0 C2 0 2 0 3.8125 1.6875 C4.534375 2.450625 5.25625 3.21375 6 4 C6.9075 4.9075 7.815 5.815 8.75 6.75 C9.4925 7.4925 10.235 8.235 11 9 C9.68 8.67 8.36 8.34 7 8 C7 7.34 7 6.68 7 6 C5.68 5.67 4.36 5.34 3 5 C3.14133499 6.77119803 3.28823208 8.54195287 3.4375 10.3125 C3.55931641 11.79169922 3.55931641 11.79169922 3.68359375 13.30078125 C3.91812559 16.09375599 3.91812559 16.09375599 5 19 C5.66 19 6.32 19 7 19 C6.67 19.99 6.34 20.98 6 22 C1.3146935 16.47374105 -0.13052388 14.35762725 -0.0625 6.875 C-0.05347656 5.59367187 -0.04445313 4.31234375 -0.03515625 2.9921875 C-0.02355469 2.00476562 -0.01195313 1.01734375 0 0 Z " fill="#A9CD4E" transform="translate(19,34)"/>
<path d="M0 0 C0.66 0.33 1.32 0.66 2 1 C2 2.32 2 3.64 2 5 C-0.09252934 6.94516812 -2.07958953 8.58413249 -4.375 10.25 C-4.97828125 10.70890625 -5.5815625 11.1678125 -6.203125 11.640625 C-10.70228795 15 -10.70228795 15 -13 15 C-12.74354365 11.38396553 -12.16697934 10.16380884 -9.53125 7.578125 C-8.5309375 6.80984375 -7.530625 6.0415625 -6.5 5.25 C-4.99953125 4.08210938 -4.99953125 4.08210938 -3.46875 2.890625 C-2.6540625 2.26671875 -1.839375 1.6428125 -1 1 C-0.67 0.67 -0.34 0.34 0 0 Z " fill="#4E7F40" transform="translate(53,57)"/>
<path d="M0 0 C1.88391785 3.26545761 2.49287967 6.28111761 3 10 C1.33388095 10.042721 -0.33382885 10.04063832 -2 10 C-2.33 9.67 -2.66 9.34 -3 9 C-3.33 9.66 -3.66 10.32 -4 11 C-5.32 11 -6.64 11 -8 11 C-7.73212125 7.07111171 -7.47562903 5.45123779 -4.5625 2.6875 C-2 1 -2 1 0 0 Z " fill="#14503A" transform="translate(99,65)"/>
<path d="M0 0 C6.93 0 13.86 0 21 0 C20.34 0.66 19.68 1.32 19 2 C19.99 2.33 20.98 2.66 22 3 C21.34 5.31 20.68 7.62 20 10 C19.67 10 19.34 10 19 10 C18.67 8.02 18.34 6.04 18 4 C12.06 3.67 6.12 3.34 0 3 C0 2.01 0 1.02 0 0 Z " fill="#0D4632" transform="translate(151,43)"/>
<path d="M0 0 C0 1.98 0 3.96 0 6 C-3.32534757 7.10844919 -5.62182575 6.84454356 -9 6 C-9.33 3.69 -9.66 1.38 -10 -1 C-5.94568308 -2.15837626 -3.78187881 -1.83691257 0 0 Z " fill="#2C6A3E" transform="translate(131,21)"/>
<path d="M0 0 C1.67542976 0.28604898 3.34385343 0.61781233 5 1 C5.33 2.98 5.66 4.96 6 7 C3.64561267 8.42944945 2.51967567 9.08661261 -0.25 8.625 C-0.8275 8.41875 -1.405 8.2125 -2 8 C-1.125 1.125 -1.125 1.125 0 0 Z " fill="#1E5A2C" transform="translate(159,19)"/>
<path d="M0 0 C1.37140038 0.01987537 2.7426453 0.05555764 4.11328125 0.10546875 C4.81517578 0.11900391 5.51707031 0.13253906 6.24023438 0.14648438 C7.96907954 0.18176693 9.6975289 0.23557292 11.42578125 0.29296875 C11.42578125 0.95296875 11.42578125 1.61296875 11.42578125 2.29296875 C12.74578125 2.62296875 14.06578125 2.95296875 15.42578125 3.29296875 C8.16578125 3.29296875 0.90578125 3.29296875 -6.57421875 3.29296875 C-3.57421875 0.29296875 -3.57421875 0.29296875 0 0 Z " fill="#0B4833" transform="translate(157.57421875,53.70703125)"/>
<path d="M0 0 C0.625 1.875 0.625 1.875 1 4 C0.34 4.66 -0.32 5.32 -1 6 C-1.99 6 -2.98 6 -4 6 C-3.67 6.99 -3.34 7.98 -3 9 C-4.65 9.66 -6.3 10.32 -8 11 C-8 15.62 -8 20.24 -8 25 C-8.66 25.33 -9.32 25.66 -10 26 C-11.06919961 12.96594766 -11.06919961 12.96594766 -8.546875 8.328125 C-6.79575282 6.37098845 -5.01794547 4.67657996 -3 3 C-1.99206837 2.00799505 -0.98928936 1.01059713 0 0 Z " fill="#A8CD4B" transform="translate(50,40)"/>
<path d="M0 0 C5.2372132 1.37165108 8.0389668 3.4790816 12 7 C12.99 7.66 13.98 8.32 15 9 C15.66 8.67 16.32 8.34 17 8 C17.12375 8.639375 17.2475 9.27875 17.375 9.9375 C17.58125 10.618125 17.7875 11.29875 18 12 C18.66 12.33 19.32 12.66 20 13 C19.67 14.65 19.34 16.3 19 18 C18.46503906 17.28070313 17.93007813 16.56140625 17.37890625 15.8203125 C14.82416256 12.79153591 12.01294709 10.34290478 8.9375 7.875 C2.5234375 2.671875 2.5234375 2.671875 0 0 Z " fill="#1F581F" transform="translate(21,35)"/>
<path d="M0 0 C0.33 0.66 0.66 1.32 1 2 C3.58605332 2.4683265 3.58605332 2.4683265 6.5625 2.625 C8.08037109 2.73714844 8.08037109 2.73714844 9.62890625 2.8515625 C10.80259766 2.92503906 10.80259766 2.92503906 12 3 C11.01 3.495 11.01 3.495 10 4 C10.33 5.98 10.66 7.96 11 10 C10.01 10.495 10.01 10.495 9 11 C9 9.68 9 8.36 9 7 C7.68 6.67 6.36 6.34 5 6 C5.66 6 6.32 6 7 6 C7 5.34 7 4.68 7 4 C5.68 4.33 4.36 4.66 3 5 C3 5.66 3 6.32 3 7 C2.01 7.33 1.02 7.66 0 8 C0.33 6.68 0.66 5.36 1 4 C0.34 3.67 -0.32 3.34 -1 3 C-0.67 2.01 -0.34 1.02 0 0 Z " fill="#0F4A35" transform="translate(116,63)"/>
<path d="M0 0 C0.7425 0.185625 1.485 0.37125 2.25 0.5625 C4.94990963 0.99203108 6.44631077 0.85122974 9 0 C9.33 1.65 9.66 3.3 10 5 C6.37 5 2.74 5 -1 5 C-0.67 3.35 -0.34 1.7 0 0 Z " fill="#578D78" transform="translate(133,70)"/>
<path d="M0 0 C0.66 1.32 1.32 2.64 2 4 C2.66 2.68 3.32 1.36 4 0 C4.66 0 5.32 0 6 0 C6.66 2.31 7.32 4.62 8 7 C5.23735711 7.59732819 2.83967231 8 0 8 C0 5.36 0 2.72 0 0 Z " fill="#1A592F" transform="translate(109,21)"/>
<path d="M0 0 C2.64 0 5.28 0 8 0 C8.33 1.65 8.66 3.3 9 5 C7.35 5 5.7 5 4 5 C4 4.01 4 3.02 4 2 C2.68 2 1.36 2 0 2 C0 2.66 0 3.32 0 4 C0.99 3.67 1.98 3.34 3 3 C3 3.66 3 4.32 3 5 C1.35 4.67 -0.3 4.34 -2 4 C-1.34 2.68 -0.68 1.36 0 0 Z " fill="#568D7A" transform="translate(70,70)"/>
<path d="M0 0 C4.0127072 2.11781769 6.52320293 4.17985536 9 8 C9.390625 11.55078125 9.390625 11.55078125 9.25 15.3125 C9.21390625 16.56675781 9.1778125 17.82101563 9.140625 19.11328125 C9.07101563 20.54220703 9.07101563 20.54220703 9 22 C8.67 22 8.34 22 8 22 C7.94392578 20.86111328 7.94392578 20.86111328 7.88671875 19.69921875 C7.78810547 18.20841797 7.78810547 18.20841797 7.6875 16.6875 C7.62949219 15.70136719 7.57148437 14.71523438 7.51171875 13.69921875 C6.93738969 10.66974254 6.25035279 9.97479938 4 8 C2.8125 4.8125 2.8125 4.8125 2 2 C1.34 2 0.68 2 0 2 C0 1.34 0 0.68 0 0 Z " fill="#96BE50" transform="translate(30,43)"/>
<path d="M0 0 C0.33 0 0.66 0 1 0 C1.02578125 0.86882813 1.0515625 1.73765625 1.078125 2.6328125 C1.4148448 9.47434653 1.96457432 13.35040405 6 19 C5.75 22.875 5.75 22.875 5 26 C4.67 26 4.34 26 4 26 C3.566875 24.3603125 3.566875 24.3603125 3.125 22.6875 C2.18106796 18.95986155 2.18106796 18.95986155 0 16 C-0.14245897 13.23344676 -0.18769445 10.57346694 -0.125 7.8125 C-0.11597656 7.06291016 -0.10695313 6.31332031 -0.09765625 5.54101562 C-0.07412578 3.69387346 -0.03825561 1.84689588 0 0 Z " fill="#215715" transform="translate(18,35)"/>
<path d="M0 0 C0.99 0 1.98 0 3 0 C3.33 0.99 3.66 1.98 4 3 C4.33 2.34 4.66 1.68 5 1 C5.66 1 6.32 1 7 1 C7.66 2.32 8.32 3.64 9 5 C2.25 7.125 2.25 7.125 0 6 C0 4.02 0 2.04 0 0 Z " fill="#4E8771" transform="translate(122,70)"/>
<path d="M0 0 C2 2 2 2 3 6 C6.96 6.33 10.92 6.66 15 7 C15 7.33 15 7.66 15 8 C7.08 8.495 7.08 8.495 -1 9 C-1 1 -1 1 0 0 Z " fill="#2F5E4F" transform="translate(71,58)"/>
<path d="M0 0 C0.66 0 1.32 0 2 0 C3.625 2 3.625 2 5 4 C4.01 4 3.02 4 2 4 C2 7.63 2 11.26 2 15 C1.34 14.67 0.68 14.34 0 14 C0 9.38 0 4.76 0 0 Z " fill="#9AC255" transform="translate(19,34)"/>
<path d="M0 0 C2.475 0.495 2.475 0.495 5 1 C5 2.65 5 4.3 5 6 C3.35 6.33 1.7 6.66 0 7 C0 4.69 0 2.38 0 0 Z " fill="#548A51" transform="translate(66,21)"/>
<path d="M0 0 C3.17218843 3.62535821 4.42902597 7.51150278 6 12 C4.35 11.67 2.7 11.34 1 11 C-0.17571451 7.32589215 -0.07366746 3.83070817 0 0 Z " fill="#3D6859" transform="translate(113,53)"/>
<path d="M0 0 C0.66 0 1.32 0 2 0 C0.49650623 3.66786393 -1.63728792 5.68910393 -4.625 8.25 C-5.44226562 8.95640625 -6.25953125 9.6628125 -7.1015625 10.390625 C-7.72804687 10.92171875 -8.35453125 11.4528125 -9 12 C-9.66 11.01 -10.32 10.02 -11 9 C-10.34 9 -9.68 9 -9 9 C-8.67 8.34 -8.34 7.68 -8 7 C-3.41176471 3 -3.41176471 3 -1 3 C-0.67 2.01 -0.34 1.02 0 0 Z " fill="#A7CA50" transform="translate(54,51)"/>
<path d="M0 0 C2.475 0.495 2.475 0.495 5 1 C5 2.65 5 4.3 5 6 C3.0625 6.5625 3.0625 6.5625 1 7 C0 6 0 6 -0.0625 2.9375 C-0.041875 1.968125 -0.02125 0.99875 0 0 Z " fill="#538B50" transform="translate(144,21)"/>
<path d="M0 0 C2.8290723 2.8290723 3.37611108 3.38144425 4 7 C2.35 7 0.7 7 -1 7 C-1.33 7.66 -1.66 8.32 -2 9 C-2.66 8.67 -3.32 8.34 -4 8 C-2.68 5.36 -1.36 2.72 0 0 Z " fill="#335E4F" transform="translate(108,43)"/>
<path d="M0 0 C0.05384521 2.29141286 0.09272087 4.58318188 0.125 6.875 C0.14820313 8.15117188 0.17140625 9.42734375 0.1953125 10.7421875 C0 14 0 14 -2 16 C-2 12.04 -2 8.08 -2 4 C-3.65 4.33 -5.3 4.66 -7 5 C-2.25 0 -2.25 0 0 0 Z " fill="#A8D05A" transform="translate(58,35)"/>
<path d="M0 0 C0.66 0 1.32 0 2 0 C2.66 0.99 3.32 1.98 4 3 C4.33 2.34 4.66 1.68 5 1 C5.66 1 6.32 1 7 1 C7 2.65 7 4.3 7 6 C4.69 6 2.38 6 0 6 C0 4.02 0 2.04 0 0 Z " fill="#639E5B" transform="translate(39,21)"/>
<path d="M0 0 C1.32 0.66 2.64 1.32 4 2 C4.125 7.75 4.125 7.75 3 10 C2.34 9.67 1.68 9.34 1 9 C1.33 6.69 1.66 4.38 2 2 C1.34 2 0.68 2 0 2 C-0.33 3.65 -0.66 5.3 -1 7 C-1.66 6.01 -2.32 5.02 -3 4 C-2.01 2.68 -1.02 1.36 0 0 Z " fill="#0F4D29" transform="translate(90,19)"/>
<path d="M0 0 C-0.54723683 3.37462715 -1.0549 5.08235 -3 8 C-4.32 8 -5.64 8 -7 8 C-6.67 6.35 -6.34 4.7 -6 3 C-5.34 3 -4.68 3 -4 3 C-4 2.34 -4 1.68 -4 1 C-2 0 -2 0 0 0 Z " fill="#427C65" transform="translate(123,67)"/>
<path d="M0 0 C0.66 0.33 1.32 0.66 2 1 C3.87056791 1.2275015 5.74685958 1.40962811 7.625 1.5625 C8.62789062 1.64628906 9.63078125 1.73007813 10.6640625 1.81640625 C11.43492187 1.87699219 12.20578125 1.93757813 13 2 C8.99561779 4.8202907 4.87663461 4.00863471 0.25 3.625 C-0.54277344 3.56828125 -1.33554688 3.5115625 -2.15234375 3.453125 C-4.10231735 3.31216305 -6.05128671 3.1574288 -8 3 C-8 2.67 -8 2.34 -8 2 C-5.36 2 -2.72 2 0 2 C0 1.34 0 0.68 0 0 Z " fill="#245546" transform="translate(127,63)"/>
<path d="M0 0 C0.33 0 0.66 0 1 0 C1 3.3 1 6.6 1 10 C-2.56311466 8.21844267 -4.35645475 6.83236991 -7 4 C-5.68 3.67 -4.36 3.34 -3 3 C-2.67 3.99 -2.34 4.98 -2 6 C-1.34 6.33 -0.68 6.66 0 7 C0 4.69 0 2.38 0 0 Z " fill="#B9D53F" transform="translate(36,52)"/>
<path d="M0 0 C2.125 0.9375 2.125 0.9375 4 2 C3.34 3.32 2.68 4.64 2 6 C0.68 6 -0.64 6 -2 6 C-2 4.35 -2 2.7 -2 1 C-1.34 0.67 -0.68 0.34 0 0 Z " fill="#477D6B" transform="translate(65,69)"/>
<path d="M0 0 C0.99 0.33 1.98 0.66 3 1 C3 1.66 3 2.32 3 3 C3.78375 3.268125 4.5675 3.53625 5.375 3.8125 C8 5 8 5 10 8 C6.62537285 7.45276317 4.91765 6.9451 2 5 C2 4.34 2 3.68 2 3 C1.34 3 0.68 3 0 3 C0 2.01 0 1.02 0 0 Z " fill="#195225" transform="translate(26,64)"/>
<path d="M0 0 C2.475 0.495 2.475 0.495 5 1 C5 2.65 5 4.3 5 6 C3.35 6 1.7 6 0 6 C0 4.02 0 2.04 0 0 Z " fill="#5F9957" transform="translate(99,21)"/>
<path d="M0 0 C0.66 0 1.32 0 2 0 C2 1.32 2 2.64 2 4 C2.66 4 3.32 4 4 4 C4 3.01 4 2.02 4 1 C4.66 1 5.32 1 6 1 C6 2.65 6 4.3 6 6 C4.33388095 6.042721 2.66617115 6.04063832 1 6 C0 5 0 5 -0.0625 2.4375 C-0.041875 1.633125 -0.02125 0.82875 0 0 Z " fill="#47826D" transform="translate(80,70)"/>
<path d="M0 0 C0 3.9478088 -1.33724565 5.18508826 -4 8 C-4.99 8 -5.98 8 -7 8 C-7.33 8.66 -7.66 9.32 -8 10 C-8.66 9.34 -9.32 8.68 -10 8 C-6.7 5.36 -3.4 2.72 0 0 Z " fill="#1C5226" transform="translate(53,62)"/>
<path d="M0 0 C2.52394612 3.12488567 4.39701907 6.31314387 6 10 C5.67 10.66 5.34 11.32 5 12 C2.13285809 10.56642904 1.39661301 8.85670843 0 6 C-0.1875 2.6875 -0.1875 2.6875 0 0 Z " fill="#3F675A" transform="translate(65,46)"/>
<path d="M0 0 C1.98 0.495 1.98 0.495 4 1 C4 2.32 4 3.64 4 5 C2.35 5 0.7 5 -1 5 C-0.67 3.35 -0.34 1.7 0 0 Z " fill="#538E76" transform="translate(98,70)"/>
<path d="M0 0 C5.94 0 11.88 0 18 0 C18 0.33 18 0.66 18 1 C16.95199219 1.06058594 15.90398437 1.12117188 14.82421875 1.18359375 C13.44529952 1.26801738 12.06639395 1.35266447 10.6875 1.4375 C9.65206055 1.49647461 9.65206055 1.49647461 8.59570312 1.55664062 C5.52838465 1.74927415 2.93031848 2.02322717 0 3 C0 2.01 0 1.02 0 0 Z " fill="#1C4A3B" transform="translate(151,53)"/>
<path d="M0 0 C0.433125 0.9590625 0.433125 0.9590625 0.875 1.9375 C1.82823451 4.15206079 1.82823451 4.15206079 4 5 C3.67 6.65 3.34 8.3 3 10 C0.74754119 7.31158141 -0.88213958 5.35358125 -2 2 C-1.34 2 -0.68 2 0 2 C0 1.34 0 0.68 0 0 Z " fill="#174E1F" transform="translate(37,43)"/>
<path d="M0 0 C0.99 0.33 1.98 0.66 3 1 C2.34 1 1.68 1 1 1 C1 2.32 1 3.64 1 5 C2.32 4.34 3.64 3.68 5 3 C4.34 4.32 3.68 5.64 3 7 C1.68 6.67 0.36 6.34 -1 6 C-1.042721 4.33388095 -1.04063832 2.66617115 -1 1 C-0.67 0.67 -0.34 0.34 0 0 Z " fill="#5C9660" transform="translate(158,21)"/>
<path d="M0 0 C0.33 0 0.66 0 1 0 C1.12375 0.78375 1.2475 1.5675 1.375 2.375 C1.79117993 5.14057822 1.79117993 5.14057822 4 7 C3.34 8.32 2.68 9.64 2 11 C1.34 11 0.68 11 0 11 C0 7.37 0 3.74 0 0 Z " fill="#BBD749" transform="translate(41,53)"/>
<path d="M0 0 C0.99 0 1.98 0 3 0 C3 1.98 3 3.96 3 6 C1.68 6 0.36 6 -1 6 C-0.67 4.02 -0.34 2.04 0 0 Z " fill="#427B67" transform="translate(92,70)"/>
<path d="M0 0 C0 0.99 0 1.98 0 3 C-0.99 3.33 -1.98 3.66 -3 4 C-4.20882096 6.00016466 -4.20882096 6.00016466 -5 8 C-5.66 7.67 -6.32 7.34 -7 7 C-3.86206897 0 -3.86206897 0 0 0 Z " fill="#598135" transform="translate(51,60)"/>
<path d="M0 0 C2.97 0 5.94 0 9 0 C8.34 1.98 7.68 3.96 7 6 C5 3 5 3 5 1 C3.35 1 1.7 1 0 1 C0 0.67 0 0.34 0 0 Z " fill="#CEE8DF" transform="translate(91,36)"/>
<path d="M0 0 C0.66 0 1.32 0 2 0 C2.33 1.98 2.66 3.96 3 6 C1.35 6 -0.3 6 -2 6 C-1.34 4.02 -0.68 2.04 0 0 Z " fill="#619B58" transform="translate(113,21)"/>
<path d="M0 0 C0.66 0 1.32 0 2 0 C2.1875 2.375 2.1875 2.375 2 5 C1.01 5.66 0.02 6.32 -1 7 C-1.66 6.34 -2.32 5.68 -3 5 C-1.625 2.5 -1.625 2.5 0 0 Z " fill="#205A26" transform="translate(57,49)"/>
<path d="M0 0 C0.99 0.33 1.98 0.66 3 1 C1.02 3.31 -0.96 5.62 -3 8 C-4 5 -4 5 -3 2 C-2.01 1.34 -1.02 0.68 0 0 Z " fill="#2F6318" transform="translate(44,43)"/>
<path d="M0 0 C1.5625 1.8125 1.5625 1.8125 3 4 C2.67 4.99 2.34 5.98 2 7 C0.68 6.67 -0.64 6.34 -2 6 C-1.125 1.125 -1.125 1.125 0 0 Z " fill="#64A05C" transform="translate(56,21)"/>
<path d="M0 0 C0.33 0 0.66 0 1 0 C1 1.98 1 3.96 1 6 C2.32 6.66 3.64 7.32 5 8 C4.34 8.66 3.68 9.32 3 10 C2.01 9.34 1.02 8.68 0 8 C-0.40843923 5.28796348 -0.13336867 2.7562858 0 0 Z " fill="#19532A" transform="translate(21,55)"/>
<path d="M0 0 C0.99 0 1.98 0 3 0 C2.34 1.98 1.68 3.96 1 6 C0.34 6 -0.32 6 -1 6 C-1.625 4.125 -1.625 4.125 -2 2 C-1.34 1.34 -0.68 0.68 0 0 Z " fill="#275244" transform="translate(80,51)"/>
<path d="M0 0 C0 0.66 0 1.32 0 2 C-0.99 2.495 -0.99 2.495 -2 3 C-3.13350534 5.01669827 -3.13350534 5.01669827 -4 7 C-4.33 7 -4.66 7 -5 7 C-5 5.02 -5 3.04 -5 1 C-3 0 -3 0 0 0 Z " fill="#125124" transform="translate(115,19)"/>
<path d="M0 0 C0.99 0.33 1.98 0.66 3 1 C3 2.32 3 3.64 3 5 C1.68 5 0.36 5 -1 5 C-0.67 3.35 -0.34 1.7 0 0 Z " fill="#6B9E89" transform="translate(112,70)"/>
</svg>
