<?xml version="1.0" encoding="UTF-8"?>
<svg id="Camada_2" xmlns="http://www.w3.org/2000/svg" viewBox="0 0 390.1 375.2">
  <defs>
    <style>
      .cls-1 {
        fill: #02643e;
      }

      .cls-2 {
        fill: #bcd533;
      }

      .cls-3 {
        fill: #61812a;
      }
    </style>
  </defs>
  <g id="Camada_1-2" data-name="Camada_1">
    <g>
      <rect class="cls-1" x="0" width="390.1" height="375.2" rx="71.66" ry="71.66"/>
      <g>
        <path class="cls-3" d="M129.18,199.2c1.95,1.45,3.72,2.77,5.48,4.09,17.07,12.85,34.12,25.7,51.21,38.54,4.05,3.04,6.87,6.42,8,10.3.21.71.27,1.43.17,2.14-.69,5.08-1.38,10.16-2.08,15.24-.02.13-.05.26-.1.45-1.02-.48-1.67-1.12-2.42-1.68-14.71-11.05-29.4-22.11-44.1-33.17-3.62-2.72-7.28-5.42-10.84-8.18-4.06-3.15-6.79-6.66-7.51-10.68-.08-.42-.07-.85-.02-1.26.68-5.08,1.38-10.16,2.07-15.24.02-.13.05-.25.12-.56Z"/>
        <path class="cls-3" d="M259.48,201.24c-1.79,1.46-3.43,2.79-5.05,4.12-15.7,12.94-31.38,25.88-47.1,38.81-3.73,3.07-6.27,6.39-7.17,10.12-.17.68-.19,1.36-.07,2.03.88,4.78,1.76,9.55,2.64,14.33.02.12.06.24.11.42.95-.5,1.55-1.13,2.23-1.7,13.53-11.13,27.04-22.27,40.56-33.41,3.33-2.74,6.7-5.46,9.97-8.23,3.73-3.16,6.18-6.62,6.69-10.45.05-.4.03-.81-.04-1.2-.87-4.78-1.76-9.55-2.64-14.33-.02-.12-.06-.23-.14-.52Z"/>
        <path class="cls-2" d="M194.61,242.63c-4.08-3.2-7.92-6.16-11.71-9.19-11.49-9.16-23.04-18.24-34.39-27.53-6.97-5.7-14.64-10.73-20.65-17.37-8.65-9.57-14.62-20.15-14.46-33.13.18-14.66.03-29.33.02-44,0-.51-.03-1.02.02-1.52.14-1.41.55-2.13,2.09-.88,3.57,2.89,7.21,5.71,10.81,8.58,15.16,12.06,30.27,24.18,45.49,36.17,9.73,7.67,17.11,16.79,21.43,28.02,2.08,5.4,1.99,11.01,2.03,16.57.08,12.29.26,24.58-.19,36.86-.09,2.34.64,4.71-.49,7.43Z"/>
        <path class="cls-2" d="M200.89,243.38c3.87-3.24,7.52-6.25,11.12-9.31,10.9-9.28,21.87-18.49,32.65-27.91,6.62-5.78,13.9-10.87,19.6-17.61,8.21-9.69,13.86-20.41,13.7-33.54-.19-14.84-.07-29.68-.09-44.52,0-.51.02-1.03-.02-1.54-.13-1.43-.52-2.16-1.99-.89-3.39,2.93-6.85,5.79-10.27,8.69-14.39,12.23-28.74,24.51-43.19,36.67-9.24,7.77-16.24,17.02-20.33,28.38-1.97,5.47-1.88,11.14-1.9,16.77-.06,12.43-.21,24.87.24,37.3.09,2.37-.6,4.77.48,7.52Z"/>
      </g>
    </g>
  </g>
</svg>